<svg width="34" height="30" viewBox="0 0 34 30" fill="none" xmlns="http://www.w3.org/2000/svg">
<path fill-rule="evenodd" clip-rule="evenodd" d="M5.55013 11.6732H11.6667H21.6667H27.7832L25.6828 25.2641C25.5661 26.0812 24.8661 26.6815 24.0495 26.6815H9.28304C8.46637 26.6815 7.76641 26.0812 7.64974 25.2641L5.55013 11.6732ZM23.3333 6.67038V8.33797H27.7832H31.6667C32.5833 8.33797 33.3333 9.08839 33.3333 10.0056C33.3333 10.9227 32.5833 11.6732 31.6667 11.6732H31.1165C31.1165 11.8399 31.0998 12.0067 31.0832 12.1734L28.9836 25.7643C28.6169 28.199 26.5161 30 24.0495 30H9.28304C6.81637 30 4.71644 28.199 4.34977 25.7643L2.25016 12.1734C2.2335 12.0067 2.2168 11.8399 2.2168 11.6732H1.66667C0.75 11.6732 0 10.9227 0 10.0056C0 9.08839 0.75 8.33797 1.66667 8.33797H5.55013H10V6.67038C10 2.98499 12.9833 0 16.6667 0C20.35 0 23.3333 2.98499 23.3333 6.67038ZM13.3334 6.67042V8.33801H20V6.67042C20 4.81939 18.5 3.33523 16.6667 3.33523C14.8334 3.33523 13.3334 4.83606 13.3334 6.67042ZM16.6667 23.3463C15.75 23.3463 15 22.5959 15 21.6787V16.6759C15 15.7587 15.75 15.0083 16.6667 15.0083C17.5833 15.0083 18.3333 15.7587 18.3333 16.6759V21.6787C18.3333 22.5959 17.5833 23.3463 16.6667 23.3463ZM9.99999 21.6787C9.99999 22.5959 10.75 23.3463 11.6667 23.3463C12.5833 23.3463 13.3333 22.5959 13.3333 21.6787V16.6759C13.3333 15.7587 12.5833 15.0083 11.6667 15.0083C10.75 15.0083 9.99999 15.7587 9.99999 16.6759V21.6787ZM20 21.6787C20 22.5959 20.75 23.3463 21.6666 23.3463C22.5833 23.3463 23.3333 22.5959 23.3333 21.6787V16.6759C23.3333 15.7587 22.5833 15.0083 21.6666 15.0083C20.75 15.0083 20 15.7587 20 16.6759V21.6787Z" fill="#3F3F3F"/>
</svg>
