<svg width="28" height="25" viewBox="0 0 28 25" fill="none" xmlns="http://www.w3.org/2000/svg">
<path fill-rule="evenodd" clip-rule="evenodd" d="M4.62511 9.72757H9.72222H18.0556H23.1527L21.4023 21.0533C21.3051 21.7342 20.7218 22.2345 20.0412 22.2345H7.73587C7.05531 22.2345 6.47201 21.7342 6.37478 21.0533L4.62511 9.72757ZM19.4444 5.55865V6.94831H23.1527H26.3889C27.1528 6.94831 27.7778 7.57365 27.7778 8.33797C27.7778 9.10228 27.1528 9.72763 26.3889 9.72763H25.9304C25.9304 9.8666 25.9165 10.0055 25.9026 10.1445L24.153 21.4703C23.8474 23.4992 22.0968 25 20.0412 25H7.73587C5.68031 25 3.93037 23.4992 3.62481 21.4703L1.87514 10.1445C1.86125 10.0055 1.84733 9.8666 1.84733 9.72763H1.38889C0.625 9.72763 0 9.10228 0 8.33797C0 7.57365 0.625 6.94831 1.38889 6.94831H4.62511H8.33333V5.55865C8.33333 2.4875 10.8194 0 13.8889 0C16.9583 0 19.4444 2.4875 19.4444 5.55865ZM11.1111 5.55868V6.94834H16.6667V5.55868C16.6667 4.01616 15.4167 2.77936 13.8889 2.77936C12.3611 2.77936 11.1111 4.03005 11.1111 5.55868ZM13.8889 19.4552C13.125 19.4552 12.5 18.8299 12.5 18.0656V13.8966C12.5 13.1323 13.125 12.5069 13.8889 12.5069C14.6528 12.5069 15.2778 13.1323 15.2778 13.8966V18.0656C15.2778 18.8299 14.6528 19.4552 13.8889 19.4552ZM8.33332 18.0656C8.33332 18.8299 8.95832 19.4552 9.72221 19.4552C10.4861 19.4552 11.1111 18.8299 11.1111 18.0656V13.8966C11.1111 13.1323 10.4861 12.5069 9.72221 12.5069C8.95832 12.5069 8.33332 13.1323 8.33332 13.8966V18.0656ZM16.6667 18.0656C16.6667 18.8299 17.2917 19.4552 18.0556 19.4552C18.8194 19.4552 19.4444 18.8299 19.4444 18.0656V13.8966C19.4444 13.1323 18.8194 12.5069 18.0556 12.5069C17.2917 12.5069 16.6667 13.1323 16.6667 13.8966V18.0656Z" fill="white"/>
</svg>
