<svg width="50" height="30" viewBox="0 0 50 30" fill="none" xmlns="http://www.w3.org/2000/svg">
<path fill-rule="evenodd" clip-rule="evenodd" d="M0 6.42857C0 5.25 1.00554 4.28571 2.23453 4.28571H8.20069C8.64759 4.28571 9.02751 4.02845 9.22862 3.6213C10.3012 1.47845 12.5804 0 15.2395 0C17.8986 0 20.1555 1.47845 21.2504 3.6213C21.4515 4.00702 21.8313 4.28571 22.2782 4.28571H46.9251C48.1541 4.28571 49.1597 5.25 49.1597 6.42857C49.1597 7.60714 48.1541 8.57143 46.9251 8.57143H22.256C21.8091 8.57143 21.4291 8.8287 21.228 9.23584C20.1555 11.3787 17.8762 12.8571 15.2171 12.8571C12.5581 12.8571 10.3012 11.3787 9.20625 9.23584C9.00514 8.85012 8.62523 8.57143 8.17832 8.57143H2.23453C1.00554 8.57143 0 7.60714 0 6.42857ZM46.9251 21.4286H40.959C40.5121 21.4286 40.1321 21.1713 39.931 20.7642C38.8585 18.6213 36.5792 17.1429 33.9201 17.1429C31.2611 17.1429 29.0042 18.6213 27.9093 20.7642C27.7081 21.1499 27.3284 21.4286 26.8815 21.4286H2.23453C1.00554 21.4286 0 22.3929 0 23.5714C0 24.75 1.00554 25.7143 2.23453 25.7143H26.9037C27.3506 25.7143 27.7305 25.9716 27.9316 26.3787C29.0042 28.5216 31.2834 30 33.9425 30C36.6016 30 38.8585 28.5216 39.9534 26.3787C40.1545 25.993 40.5344 25.7143 40.9813 25.7143H46.9251C48.1541 25.7143 49.1597 24.75 49.1597 23.5714C49.1597 22.3929 48.1541 21.4286 46.9251 21.4286Z" fill="#BBBBBC"/>
</svg>
