<svg width="23" height="25" viewBox="0 0 23 25" fill="none" xmlns="http://www.w3.org/2000/svg">
<path fill-rule="evenodd" clip-rule="evenodd" d="M9.375 22.4988C9.375 23.887 8.25 25 6.875 25H3.75C1.625 25 0 23.3242 0 21.2482V10.6808C0 9.63029 0.5 8.61736 1.25 7.91703L8.75 0.988703C10.125 -0.286901 12.25 -0.336716 13.75 0.888864L21.1243 7.22914C21.9993 7.94198 22.5 8.99252 22.5 10.093V21.2482C22.5 23.3242 20.875 25 18.75 25H15.625C14.25 25 13.125 23.8745 13.125 22.4988V16.2834H9.375V22.4988ZM12.1252 2.78974C11.6252 2.37705 10.8743 2.40179 10.4993 2.82699L2.87475 9.75532C2.62475 9.99293 2.49999 10.3306 2.49999 10.6807V21.2482C2.49999 21.936 2.99999 22.4988 3.74999 22.4988H6.87499V15.0328C6.87499 14.3449 7.37499 13.7822 8.12499 13.7822H14.375C15.125 13.7822 15.625 14.3449 15.625 15.0328V22.4988H18.75C19.5 22.4988 20 21.936 20 21.2482V10.093C20 9.73033 19.8745 9.38015 19.4995 9.14254L12.1252 2.78974Z" fill="white"/>
</svg>
