<svg width="26" height="27" viewBox="0 0 26 27" fill="none" xmlns="http://www.w3.org/2000/svg">
<path d="M12.3811 19.8619V18.8619C12.1159 18.8619 11.8615 18.9672 11.674 19.1548L12.3811 19.8619ZM6.24297 26H5.24297C5.24297 26.4045 5.48661 26.7691 5.86028 26.9239C6.23396 27.0787 6.66407 26.9931 6.95007 26.7071L6.24297 26ZM6.24297 19.8619H7.24297C7.24297 19.3096 6.79525 18.8619 6.24297 18.8619V19.8619ZM11.2941 3.47059C11.8464 3.47059 12.2941 3.02287 12.2941 2.47059C12.2941 1.9183 11.8464 1.47059 11.2941 1.47059V3.47059ZM25.5294 13.5C25.5294 12.9477 25.0817 12.5 24.5294 12.5C23.9771 12.5 23.5294 12.9477 23.5294 13.5H25.5294ZM11.674 19.1548L5.53586 25.2929L6.95007 26.7071L13.0882 20.569L11.674 19.1548ZM7.24297 26V19.8619H5.24297V26H7.24297ZM6.24297 18.8619H3.94118V20.8619H6.24297V18.8619ZM2 16.9207V5.41177H0V16.9207H2ZM21.5882 18.8619H12.3811V20.8619H21.5882V18.8619ZM3.94118 3.47059H11.2941V1.47059H3.94118V3.47059ZM23.5294 13.5V16.9207H25.5294V13.5H23.5294ZM21.5882 20.8619C23.7649 20.8619 25.5294 19.0974 25.5294 16.9207H23.5294C23.5294 17.9928 22.6603 18.8619 21.5882 18.8619V20.8619ZM2 5.41177C2 4.33968 2.8691 3.47059 3.94118 3.47059V1.47059C1.76452 1.47059 0 3.23512 0 5.41177H2ZM3.94118 18.8619C2.86909 18.8619 2 17.9928 2 16.9207H0C0 19.0974 1.76453 20.8619 3.94118 20.8619V18.8619ZM23.5294 5.41176C23.5294 7.29603 22.0019 8.82353 20.1176 8.82353V10.8235C23.1065 10.8235 25.5294 8.4006 25.5294 5.41176H23.5294ZM20.1176 8.82353C18.2334 8.82353 16.7059 7.29603 16.7059 5.41176H14.7059C14.7059 8.4006 17.1288 10.8235 20.1176 10.8235V8.82353ZM16.7059 5.41176C16.7059 3.5275 18.2334 2 20.1176 2V0C17.1288 0 14.7059 2.42293 14.7059 5.41176H16.7059ZM20.1176 2C22.0019 2 23.5294 3.5275 23.5294 5.41176H25.5294C25.5294 2.42293 23.1065 0 20.1176 0V2Z" fill="white"/>
</svg>
