<svg width="25" height="25" viewBox="0 0 25 25" fill="none" xmlns="http://www.w3.org/2000/svg">
<path fill-rule="evenodd" clip-rule="evenodd" d="M12.5 25C5.6 25 0 19.4 0 12.5C0 5.6 5.6 0 12.5 0C19.4 0 25 5.6 25 12.5C25 19.4 19.4 25 12.5 25ZM12.5 2.50003C6.97499 2.50003 2.49999 6.97503 2.49999 12.5C2.49999 15.1875 3.54965 17.6125 5.27465 19.4125C5.74965 17.8625 6.81256 16.575 8.20007 15.7875C7.00007 14.65 6.24999 13.0375 6.24999 11.25C6.24999 7.80003 9.04999 5.00003 12.5 5.00003C15.95 5.00003 18.75 7.80003 18.75 11.25C18.75 13.0375 17.9999 14.65 16.7999 15.7875C18.1874 16.5625 19.2497 17.8625 19.7247 19.4125C21.4497 17.6125 22.5 15.1875 22.5 12.5C22.5 6.97503 18.025 2.50003 12.5 2.50003ZM17.5 21.1626C17.45 19.1376 15.7875 17.5001 13.75 17.5001H12.5H11.25C9.21252 17.5001 7.55002 19.1376 7.50002 21.1626C8.97502 22.0126 10.675 22.5001 12.5 22.5001C14.325 22.5001 16.025 22.0126 17.5 21.1626ZM12.5 14.9999C14.575 14.9999 16.25 13.3249 16.25 11.2499C16.25 9.17494 14.575 7.49994 12.5 7.49994C10.425 7.49994 8.74999 9.17494 8.74999 11.2499C8.74999 13.3249 10.425 14.9999 12.5 14.9999Z" fill="white"/>
</svg>
