<svg width="32" height="30" viewBox="0 0 32 30" fill="none" xmlns="http://www.w3.org/2000/svg">
<path fill-rule="evenodd" clip-rule="evenodd" d="M27.9552 29.4378C28.7176 30.1874 29.9492 30.1874 30.7116 29.4378C31.474 28.6883 31.474 27.5078 30.7116 26.7583L24.6905 20.9869C26.3913 18.7945 27.4078 16.0775 27.4078 13.1355C27.4078 5.88382 21.2694 0 13.7039 0C6.1384 0 0 5.88382 0 13.1355C0 20.3873 6.1384 26.2711 13.7039 26.2711C16.7731 26.2711 19.6273 25.2967 21.9145 23.6477L27.9552 29.4378ZM3.90981 13.1355C3.90981 7.96378 8.28879 3.74766 13.7039 3.74766C19.0994 3.74766 23.4784 7.94503 23.4784 13.1355C23.4784 18.3073 19.0994 22.5234 13.7039 22.5234C8.30834 22.5047 3.90981 18.3073 3.90981 13.1355Z" fill="#BBBBBC"/>
</svg>
