<svg width="28" height="25" viewBox="0 0 28 25" fill="none" xmlns="http://www.w3.org/2000/svg">
<path fill-rule="evenodd" clip-rule="evenodd" d="M26.3889 9.10745C26.3889 7.02363 24.7083 5.3149 22.5833 5.14819L21.6943 2.68931C20.9304 0.549927 18.4444 -0.547575 16.236 0.272058L2.97207 5.23154C2.83318 5.28711 2.70817 5.3427 2.61095 5.42605C1.08317 6.00952 0 7.4404 0 9.10745V21.0268C0 23.2218 1.86111 25 4.16667 25H22.2222C24.5278 25 26.3889 23.2218 26.3889 21.0268V18.0261C27.2222 17.5677 27.7778 16.7064 27.7778 15.734V13.0806C27.7778 12.0942 27.2222 11.2468 26.3889 10.7884V9.10745ZM23.6111 10.4272V9.1074C23.6111 8.37112 22.9861 7.78763 22.2222 7.78763H4.16665C3.40276 7.78763 2.77776 8.38501 2.77776 9.1074V21.0268C2.77776 21.7631 3.40276 22.3466 4.16665 22.3466H22.2222C22.9861 22.3466 23.6111 21.7492 23.6111 21.0268V18.3734H22.2222C19.9166 18.3734 18.0555 16.5952 18.0555 14.4003C18.0555 12.2053 19.9166 10.4272 22.2222 10.4272H23.6111V10.4272ZM19.0694 3.53679L19.6388 5.12051H10.8331L17.2499 2.73107C17.986 2.46712 18.8194 2.8283 19.0694 3.53679ZM20.8333 14.4003C20.8333 13.664 21.4583 13.0805 22.2222 13.0805H25V15.7339H22.2222C21.4583 15.7339 20.8333 15.1366 20.8333 14.4003Z" fill="white"/>
</svg>
